<svg width="140" height="63" viewBox="0 0 140 63" fill="none" xmlns="http://www.w3.org/2000/svg">
<path d="M10.864 57.0011H9.268C9.14065 57.0073 9.01401 56.9787 8.90175 56.9182C8.78949 56.8578 8.69587 56.7678 8.631 56.6581L6.657 53.6341C6.59615 53.5297 6.50933 53.4429 6.405 53.3821C6.28734 53.324 6.1582 53.2929 6.027 53.2911H5.264V56.9521H3.5V47.5231H6.363C6.91592 47.5198 7.46679 47.5904 8.001 47.7331C8.40993 47.848 8.79594 48.0327 9.142 48.2791C9.42207 48.5018 9.63921 48.7938 9.772 49.1261C9.90606 49.4748 9.97716 49.8445 9.982 50.2181C9.98734 50.5169 9.94481 50.8147 9.856 51.1001C9.78437 51.3844 9.63957 51.645 9.436 51.8561C9.24708 52.0756 9.03595 52.275 8.806 52.4511C8.52889 52.6241 8.23298 52.765 7.924 52.8711C8.02888 52.9309 8.12738 53.0013 8.218 53.0811C8.30977 53.187 8.39398 53.2993 8.47 53.4171L10.864 57.0011ZM6.363 52.1011C6.66184 52.1064 6.95961 52.0639 7.245 51.9751C7.46475 51.9027 7.66728 51.786 7.84 51.6321C7.99816 51.4999 8.11483 51.3249 8.176 51.1281C8.26567 50.9059 8.30856 50.6676 8.302 50.4281C8.30958 50.2233 8.27214 50.0194 8.19231 49.8307C8.11249 49.642 7.99222 49.4732 7.84 49.3361C7.42838 49.0578 6.93572 48.9248 6.44 48.9581H5.271V52.0801L6.363 52.1011Z" fill="#3A3A3A"/>
<path d="M20.839 49V51.611H24.122V52.92H20.839V55.573H25.004V56.973H19.068V47.53H25.004V48.93H20.839V49Z" fill="#3A3A3A"/>
<path d="M36.918 47.6C37.4735 47.5995 38.0266 47.6724 38.563 47.817C38.983 47.9404 39.3704 48.1555 39.697 48.447C39.9928 48.7215 40.2308 49.0523 40.397 49.42C40.5294 49.8028 40.598 50.2049 40.6 50.61C40.5986 51.0386 40.5277 51.4641 40.39 51.87C40.2329 52.2429 39.9936 52.5755 39.69 52.843C39.3743 53.1494 38.983 53.3668 38.556 53.473C38.0374 53.6329 37.4954 53.704 36.953 53.683H35.658V57.015H33.894V47.6H36.918ZM36.918 52.36C37.2188 52.3613 37.5174 52.3091 37.8 52.206C38.0123 52.1222 38.2106 52.0065 38.388 51.863C38.5519 51.7202 38.6711 51.533 38.731 51.324C38.8139 51.0999 38.8565 50.8629 38.857 50.624C38.8636 50.3845 38.8207 50.1462 38.731 49.924C38.6494 49.7359 38.533 49.5649 38.388 49.42C38.2129 49.2748 38.014 49.1611 37.8 49.084C37.5139 49.0009 37.2147 48.9724 36.918 49H35.616V52.367L36.918 52.36Z" fill="#3A3A3A"/>
<path d="M56.7 52.29C56.6989 52.9513 56.5828 53.6074 56.357 54.229C56.1551 54.8003 55.8246 55.3176 55.391 55.741C54.9635 56.1717 54.4574 56.5162 53.9 56.756C53.0028 57.1436 52.0102 57.2541 51.0497 57.0733C50.0892 56.8924 49.2047 56.4284 48.51 55.741C48.0765 55.3162 47.744 54.7995 47.537 54.229C47.3125 53.6073 47.1988 52.951 47.201 52.29C47.2038 51.6294 47.3174 50.974 47.537 50.351C47.7449 49.7809 48.0773 49.2644 48.51 48.839C49.1362 48.2459 49.9025 47.8211 50.7374 47.6044C51.5722 47.3878 52.4484 47.3862 53.284 47.6C53.6932 47.7093 54.0879 47.8667 54.46 48.069C54.7986 48.2786 55.1214 48.5125 55.426 48.769C55.6969 49.0645 55.9319 49.3911 56.126 49.742C56.3301 50.1124 56.4854 50.5077 56.588 50.918C56.651 51.3729 56.6884 51.8309 56.7 52.29ZM54.894 52.29C54.8914 51.8152 54.8182 51.3433 54.677 50.89C54.5582 50.502 54.3577 50.144 54.089 49.84C53.8399 49.5377 53.5235 49.2979 53.165 49.14C52.7644 48.9821 52.3351 48.9106 51.905 48.93C51.4741 48.9308 51.0461 49.0017 50.638 49.14C50.2805 49.2997 49.9645 49.5391 49.714 49.84C49.4453 50.144 49.2448 50.502 49.126 50.89C48.84 51.8014 48.84 52.7786 49.126 53.69C49.2436 54.0785 49.4442 54.4367 49.714 54.74C49.9856 55.0471 50.325 55.2867 50.7053 55.4398C51.0856 55.5929 51.4964 55.6553 51.905 55.622C52.3336 55.6206 52.7591 55.5497 53.165 55.412C53.5235 55.2541 53.8399 55.0143 54.089 54.712C54.3588 54.4087 54.5594 54.0505 54.677 53.662C54.8155 53.2176 54.8886 52.7554 54.894 52.29Z" fill="#3A3A3A"/>
<path d="M71.4 57.0011H69.825C69.6988 57.006 69.5736 56.9768 69.4627 56.9164C69.3518 56.856 69.2593 56.7667 69.195 56.6581L67.2 53.6341C67.1427 53.5271 67.055 53.4394 66.948 53.3821C66.831 53.3221 66.7014 53.2909 66.57 53.2911H65.8V56.9521H64.064V47.5231H66.927C67.4799 47.5198 68.0308 47.5904 68.565 47.7331C68.9718 47.8478 69.3556 48.0326 69.699 48.2791C69.981 48.4999 70.1986 48.7924 70.329 49.1261C70.4655 49.4743 70.5389 49.8441 70.546 50.2181C70.5513 50.5169 70.5088 50.8147 70.42 51.1001C70.3428 51.3821 70.1987 51.6415 70 51.8561C69.8216 52.0854 69.6091 52.286 69.37 52.4511C69.0929 52.6241 68.797 52.765 68.488 52.8711C68.5919 52.929 68.6883 52.9995 68.775 53.0811C68.8711 53.1835 68.9556 53.2961 69.027 53.4171L71.4 57.0011ZM66.899 52.1011C67.1978 52.1064 67.4956 52.0639 67.781 51.9751C67.9987 51.9028 68.1989 51.786 68.369 51.6321C68.5464 51.499 68.6765 51.3125 68.74 51.1001C68.8297 50.8779 68.8726 50.6396 68.866 50.4001C68.8727 50.1948 68.8342 49.9905 68.7531 49.8018C68.6721 49.6131 68.5505 49.4445 68.397 49.3081C67.9858 49.0288 67.4928 48.8957 66.997 48.9301H65.835V52.0801L66.899 52.1011Z" fill="#3A3A3A"/>
<path d="M85.827 49H82.964V57.001H81.2V49H78.337V47.6H85.785V49H85.827Z" fill="#3A3A3A"/>
<path d="M95.9 57.001H94.136V47.6H95.9V57.001Z" fill="#3A3A3A"/>
<path d="M112.973 47.6V57.008H112.084C111.966 57.0064 111.851 56.9751 111.748 56.917C111.644 56.8561 111.557 56.7693 111.496 56.665L106.596 50.365C106.63 50.6296 106.644 50.8963 106.638 51.163V56.973H105.084V47.6H106.218C106.241 47.5976 106.264 47.6001 106.286 47.6074C106.307 47.6146 106.327 47.6264 106.344 47.642C106.379 47.642 106.428 47.684 106.47 47.733L106.596 47.859L111.496 54.159C111.496 53.991 111.454 53.865 111.454 53.69V47.537H112.973V47.6Z" fill="#3A3A3A"/>
<path d="M128.919 52.29V56.126C128.458 56.4609 127.945 56.7164 127.4 56.882C126.839 57.0479 126.256 57.1328 125.671 57.134C124.953 57.1422 124.241 57.014 123.571 56.756C122.979 56.5186 122.436 56.1745 121.968 55.741C121.522 55.32 121.177 54.8029 120.96 54.229C120.701 53.6158 120.573 52.9555 120.582 52.29C120.581 51.6291 120.695 50.9731 120.918 50.351C121.126 49.781 121.458 49.2644 121.891 48.839C122.333 48.398 122.862 48.0545 123.445 47.831C124.086 47.578 124.772 47.4612 125.461 47.488C125.813 47.4917 126.163 47.5198 126.511 47.572C126.83 47.6135 127.141 47.7007 127.435 47.831C127.695 47.94 127.948 48.0662 128.191 48.209C128.419 48.3539 128.63 48.5228 128.821 48.713L128.317 49.511C128.252 49.6269 128.148 49.7161 128.023 49.763C127.952 49.7769 127.878 49.776 127.807 49.7603C127.736 49.7447 127.669 49.7146 127.61 49.672C127.484 49.588 127.316 49.511 127.19 49.42C127.045 49.3267 126.887 49.2559 126.721 49.21C126.553 49.161 126.343 49.084 126.133 49.042C125.883 49.0046 125.63 48.9906 125.377 49C124.941 48.9964 124.509 49.0846 124.11 49.259C123.742 49.4056 123.412 49.6329 123.144 49.924C122.877 50.2363 122.664 50.5913 122.514 50.974C122.373 51.4274 122.3 51.8992 122.297 52.374C122.301 52.8487 122.374 53.3203 122.514 53.774C122.667 54.1681 122.879 54.5363 123.144 54.866C123.443 55.1701 123.804 55.4062 124.203 55.5584C124.602 55.7106 125.028 55.7752 125.454 55.748C125.767 55.7573 126.079 55.7147 126.378 55.622C126.652 55.5458 126.918 55.4474 127.176 55.328V53.627H126.168C126.122 53.6313 126.075 53.6254 126.032 53.6097C125.988 53.5939 125.949 53.5688 125.916 53.536C125.825 53.536 125.825 53.41 125.825 53.326V52.318H128.905L128.919 52.29Z" fill="#3A3A3A"/>
<path d="M55.482 6.24402H50.477V33.054H55.482V6.24402Z" fill="#3A3A3A"/>
<path d="M59.437 6.24402H80.059V8.64502L66.129 28.259H80.059L76.608 33.054H59.101V30.149L72.695 11.004H59.437V6.24402Z" fill="#3A3A3A"/>
<path d="M99.337 33.054H83.041V6.24402H103.082L99.337 11.165H88.06V17.311H102.578L98.791 22.029H88.06V28.091H103.082L99.337 33.054Z" fill="#3A3A3A"/>
<path d="M123.865 6.20203H128.926V33.054H125.804L111.706 15.001V33.054H106.659V6.24403H110.74L123.865 22.869V6.20203Z" fill="#3A3A3A"/>
<path d="M13.146 19.25L24.584 6.24402H18.781L8.596 17.612V6.24402H3.5V33.054H8.596V21.182L9.905 23.289H15.498L13.146 19.25Z" fill="#3A3A3A"/>
<path d="M37.17 6.24402L34.524 12.18L39.403 23.289H29.596L27.538 28.007H41.419L43.652 33.054H49.168L37.17 6.24402Z" fill="#3A3A3A"/>
<path d="M31.57 6.24402L20.293 31.458L15.54 23.289H9.905L21.469 41.636L37.17 6.24402H31.57Z" fill="#2B8BFF"/>
<path d="M134.015 5.86597C134.251 5.86912 134.486 5.89966 134.715 5.95697C134.928 5.99446 135.129 6.08071 135.303 6.20897L135.814 6.58697C135.963 6.73601 136.091 6.90574 136.192 7.09097C136.318 7.26609 136.404 7.46684 136.444 7.67897C136.493 7.9093 136.521 8.14358 136.528 8.37897C136.525 8.61465 136.497 8.84935 136.444 9.07897C136.404 9.29109 136.318 9.49184 136.192 9.66697C136.066 9.83497 135.94 10.01 135.814 10.171C135.663 10.3232 135.491 10.4529 135.303 10.556C135.129 10.6842 134.928 10.7705 134.715 10.808C134.485 10.8574 134.25 10.8856 134.015 10.892C133.779 10.8893 133.545 10.8612 133.315 10.808C133.103 10.7667 132.903 10.6808 132.727 10.556L132.223 10.171C132.069 10.0257 131.941 9.85522 131.845 9.66697C131.715 9.49411 131.628 9.29239 131.593 9.07897C131.537 8.84963 131.507 8.61491 131.502 8.37897C131.503 8.14273 131.533 7.90753 131.593 7.67897C131.634 7.4673 131.72 7.26686 131.845 7.09097L132.223 6.58697C132.37 6.4348 132.54 6.30717 132.727 6.20897C132.901 6.08071 133.102 5.99446 133.315 5.95697C133.544 5.90062 133.779 5.8701 134.015 5.86597ZM134.015 10.451C134.2 10.4471 134.383 10.4189 134.561 10.367C134.737 10.3156 134.907 10.2427 135.065 10.15C135.222 10.0618 135.364 9.94825 135.485 9.81397C135.619 9.69335 135.733 9.55145 135.821 9.39397C135.911 9.23406 135.984 9.06512 136.038 8.88997C136.083 8.711 136.111 8.5282 136.122 8.34397C136.112 8.14584 136.084 7.94904 136.038 7.75597C135.988 7.5792 135.915 7.40975 135.821 7.25197C135.733 7.09448 135.619 6.95258 135.485 6.83197C135.363 6.69745 135.221 6.58186 135.065 6.48897C134.904 6.40418 134.735 6.33391 134.561 6.27897C134.383 6.23053 134.2 6.20235 134.015 6.19497C133.74 6.18325 133.466 6.2385 133.217 6.35597C132.957 6.46764 132.719 6.62666 132.517 6.82497C132.338 7.03107 132.198 7.26833 132.104 7.52497C131.983 7.78811 131.926 8.07572 131.936 8.36497C131.926 8.65648 131.983 8.94638 132.104 9.21197C132.215 9.45983 132.354 9.69459 132.517 9.91197C132.713 10.1179 132.952 10.278 133.217 10.381C133.477 10.4525 133.747 10.4762 134.015 10.451ZM134.015 7.04197C134.278 7.01575 134.543 7.07463 134.771 7.20997C134.856 7.27232 134.923 7.35508 134.967 7.45055C135.011 7.54602 135.03 7.65109 135.023 7.75597C135.029 7.91918 134.985 8.08031 134.897 8.21797C134.794 8.34838 134.647 8.43772 134.484 8.46997C134.484 8.51197 134.568 8.51197 134.568 8.55397C134.568 8.59597 134.61 8.64497 134.652 8.68697L135.247 9.60397H134.743C134.71 9.60582 134.677 9.59905 134.648 9.58431C134.618 9.56958 134.593 9.5474 134.575 9.51997L134.071 8.72197C134.071 8.68697 134.029 8.68697 133.98 8.68697C133.931 8.68697 133.945 8.64497 133.854 8.64497H133.644V9.61097H133.098V7.04197H134.015ZM133.973 8.26697C134.059 8.27309 134.146 8.2587 134.225 8.22497C134.257 8.22499 134.288 8.21737 134.316 8.20274C134.344 8.18811 134.368 8.16692 134.386 8.14097C134.428 8.09897 134.477 8.04997 134.477 8.01497C134.477 7.97997 134.477 7.88897 134.477 7.84697C134.477 7.80497 134.477 7.72097 134.477 7.67897C134.477 7.63697 134.435 7.59497 134.386 7.55297C134.337 7.51097 134.302 7.55297 134.225 7.46897C134.148 7.42773 134.059 7.41297 133.973 7.42697H133.63V8.22497H133.973V8.26697Z" fill="#3A3A3A"/>
</svg>
