<?xml version="1.0" encoding="utf-8"?>
<!-- Generator: Adobe Illustrator 19.2.1, SVG Export Plug-In . SVG Version: 6.00 Build 0)  -->
<svg version="1.1" id="logo" xmlns="http://www.w3.org/2000/svg" xmlns:xlink="http://www.w3.org/1999/xlink" x="0px" y="0px"
	 viewBox="0 0 124.7 70.2" style="enable-background:new 0 0 124.7 70.2;" xml:space="preserve">
<style type="text/css">
	.st0{fill:none;}
	.st1{fill:#F80000;}
</style>
<g>
	<g>
		<rect class="st0" width="124.7" height="70.2"/>
	</g>
	<path d="M30.8,57.4H28l-4.9-8.8v8.8h-2.7V44.7h3.6l4.2,7.3v-7.3h2.7V57.4z M41.5,57.4h-8.3V44.7h8.3v2.5h-5.3v2.2h5v2.5h-5V55h5.3
		V57.4z M53.4,47.2h-3.6v10.3h-3V47.2h-3.6v-2.5h10.1V47.2z M64,53.8c0,0.5-0.1,1-0.3,1.5c-0.2,0.5-0.5,0.9-0.9,1.2
		c-0.4,0.4-0.9,0.7-1.4,0.9c-0.5,0.2-1.2,0.3-2,0.3c-0.8,0-1.6-0.1-2.2-0.3c-0.7-0.2-1.3-0.4-2-0.8v-2.1h0.1c0.6,0.5,1.2,1,2,1.3
		c0.8,0.3,1.5,0.4,2.1,0.4c0.9,0,1.7-0.2,2.2-0.6c0.5-0.4,0.8-0.9,0.8-1.6c0-0.6-0.1-1-0.4-1.3c-0.2-0.3-0.6-0.5-1.1-0.6
		c-0.4-0.1-0.8-0.2-1.2-0.3c-0.4-0.1-0.9-0.2-1.4-0.3c-1-0.2-1.8-0.7-2.2-1.2c-0.5-0.6-0.7-1.3-0.7-2.3c0-1.1,0.4-1.9,1.2-2.6
		c0.8-0.7,1.8-1,3.1-1c0.8,0,1.5,0.1,2.2,0.3c0.7,0.2,1.3,0.4,1.8,0.6v2h-0.1c-0.4-0.4-1-0.8-1.7-1c-0.7-0.3-1.4-0.4-2.2-0.4
		c-0.8,0-1.5,0.2-2,0.6c-0.5,0.4-0.7,0.9-0.7,1.5c0,0.5,0.1,1,0.4,1.3c0.2,0.3,0.7,0.5,1.3,0.7c0.3,0.1,0.8,0.2,1.4,0.3
		c0.6,0.1,1.1,0.2,1.5,0.4c0.8,0.3,1.5,0.6,1.9,1.1C63.8,52.2,64,52.9,64,53.8z M75.9,52.3c0,0.9-0.1,1.7-0.3,2.4
		c-0.2,0.7-0.5,1.3-0.9,1.7c-0.4,0.4-0.9,0.8-1.4,1c-0.5,0.2-1.1,0.3-1.8,0.3c-0.7,0-1.3-0.1-1.9-0.3c-0.5-0.2-1-0.5-1.4-0.9
		c-0.4-0.5-0.7-1-0.9-1.7c-0.2-0.7-0.3-1.5-0.3-2.4v-7.6h1.5v7.7c0,0.7,0,1.2,0.1,1.6c0.1,0.4,0.2,0.8,0.4,1.1
		c0.2,0.4,0.5,0.7,0.9,0.8c0.4,0.2,0.9,0.3,1.4,0.3c0.5,0,1-0.1,1.4-0.3c0.4-0.2,0.7-0.5,0.9-0.8c0.2-0.3,0.3-0.7,0.4-1.1
		c0.1-0.4,0.1-0.9,0.1-1.6v-7.8h1.5V52.3z M82,57.4h-1.5V44.7H82V57.4z M94.4,46.2h-4.1v11.3h-1.5V46.2h-4.1v-1.5h9.7V46.2z
		 M104.3,57.4h-7.6V44.7h7.6v1.5h-6v3.5h6v1.5h-6v4.7h6V57.4z M62.7,34.8V31H62v3.8h-3.8v0.7H62v3.8h0.7v-3.8h3.8v-0.7H62.7z"/>
	<path class="st1" d="M55.5,21h6.5l-3.5-5.6l-6.4,10.1l-2.9,0l7.7-12.1c0.3-0.5,0.9-0.8,1.5-0.8c0.6,0,1.2,0.3,1.5,0.8l7.8,12.1
		l-2.9,0l-1.4-2.3H57L55.5,21 M85.6,23.3V12.8h-2.5v11.5c0,0.3,0.1,0.6,0.4,0.8c0.2,0.2,0.6,0.4,0.9,0.4h11.2l1.5-2.3H85.6 M45,21.4
		c2.4,0,4.3-1.9,4.3-4.3c0-2.4-1.9-4.3-4.3-4.3H34.2v12.8h2.5V15h8.1c1.1,0,2.1,0.9,2.1,2.1c0,1.1-0.9,2.1-2.1,2.1l-6.9,0l7.3,6.4
		h3.6l-4.9-4.1H45 M19.1,25.5l7.4,0c3.5,0,6.4-2.9,6.4-6.4c0-3.5-2.8-6.4-6.4-6.4h-7.4c-3.5,0-6.4,2.9-6.4,6.4
		C12.8,22.7,15.6,25.5,19.1,25.5 M26.4,23.3h-7.1c-2.3,0-4.1-1.9-4.1-4.1c0-2.3,1.8-4.1,4.1-4.1h7.1c2.3,0,4.1,1.8,4.1,4.1
		C30.5,21.4,28.7,23.3,26.4,23.3 M73,25.5h7.6l1.4-2.2h-8.8c-2.3,0-4.1-1.9-4.1-4.1c0-2.3,1.8-4.1,4.1-4.1h7.2l1.5-2.3H73
		c-3.5,0-6.4,2.9-6.4,6.4C66.6,22.7,69.5,25.5,73,25.5 M103,23.3c-1.9,0-3.5-1.3-4-3h10.5L111,18H99c0.5-1.7,2.1-3,4-3h7.2l1.4-2.3
		h-8.8c-3.5,0-6.4,2.9-6.4,6.4c0,3.5,2.9,6.4,6.4,6.4h7.6l1.4-2.2H103 M113,14.1c0,0.6,0.5,1.1,1.1,1.1c0.6,0,1.1-0.5,1.1-1.1
		c0-0.6-0.5-1.1-1.1-1.1C113.5,13,113,13.5,113,14.1 M114.1,15.6c-0.8,0-1.4-0.6-1.4-1.4c0-0.8,0.6-1.4,1.4-1.4
		c0.8,0,1.4,0.6,1.4,1.4C115.5,14.9,114.9,15.6,114.1,15.6 M114,13.3h-0.4v1.6h0.3v-0.6h0.2l0.3,0.6h0.4l-0.4-0.7c0,0,0,0,0.1,0
		c0.1-0.1,0.2-0.2,0.2-0.3c0-0.1,0-0.1,0-0.1c0-0.1,0-0.4-0.3-0.5C114.3,13.3,114.2,13.3,114,13.3 M114.1,14h-0.2v-0.5h0.1
		c0.2,0,0.2,0,0.3,0c0.1,0,0.1,0.1,0.1,0.2c0,0.1,0,0.1-0.1,0.1C114.3,14,114.2,14,114.1,14"/>
</g>
</svg>
